# xmcd
#
# Track frame offsets: 
#        150
#        5273
#        18925
#        34322
#        51219
#        67066
#        82156
#        97346
#        111788
#        125125
#        130001
#        148838
#        165908
#        182453
#        198762
#        214493
#        225255
#
# Disc length: 3306 seconds
#
# Revision: 0
# Processed by: cddbd v1.5.2PL0 Copyright (c) Steve Scherf et al.
# Submitted via: ExactAudioCopy v1.0b1
#
DISCID=ed0ce811
DTITLE=Statik Selektah - 100 Proof (The Hangover)
DYEAR=2010
DGENRE=Rap
TTITLE0=Inside A Change (Intro)
TTITLE1=So Close, So Far (feat. Bun B, Wale and Colin Munroe)
TTITLE2=Critically Acclaimed (feat. Lil Fame, Saigon and Sean Price)
TTITLE3=Night People (feat. Freeway, Red Cafe and Masspike Miles)
TTITLE4=Follow We (feat. Smif-N-Wessun)
TTITLE5=Do It 2 Death (feat. Lil Fame, Havoc and Kool G Rap)
TTITLE6=Come Around (feat. Termanology and Royce Da 5'9)
TTITLE7=Drunken Nights (feat. Reks, Joe Scudda and J.F.K.)
TTITLE8=Life Is Short (feat. Consequence)
TTITLE9=The Thrill Is Gone (feat. Styles P and Talib Kweli)
TTITLE10=Get Out (feat. Skyzoo, Rapper Pooh, Torae and Lee Wilson)
TTITLE11=Laughin (feat. Souls Of Mischief)
TTITLE12=The Coast (feat. Evidence, Fashawn and Kali)
TTITLE13=100 Proof (Interlude) (feat. J.F.K.)
TTITLE14=Fake Love (Yes Men) (feat. Reks, Kali, Termanology and Good Bro
TTITLE14=tha)
TTITLE15=Eighty-Two (feat. Termanology)
TTITLE16=Walking Away (feat. Kali and Novel)
EXTD=
EXTT0=
EXTT1=
EXTT2=
EXTT3=
EXTT4=
EXTT5=
EXTT6=
EXTT7=
EXTT8=
EXTT9=
EXTT10=
EXTT11=
EXTT12=
EXTT13=
EXTT14=
EXTT15=
EXTT16=
PLAYORDER=
